# 3ds Max Wavefront OBJ Exporter v0.97b - (c)2007 guruware
# File Created: 05.06.2017 16:47:02

#
# object Cylinder001
#

v  48.4670 15.4451 24.8193
v  32.5086 9.5233 38.2099
v  12.9329 5.4081 45.3349
v  -7.8992 5.4081 45.3349
v  -27.4750 9.5233 38.2099
v  -43.4333 15.4451 24.8193
v  -53.8493 20.7648 6.7782
v  -57.4668 23.0733 -13.7374
v  -53.8493 20.7648 -34.2530
v  -43.4333 15.4451 -52.2942
v  -27.4750 9.5233 -65.6848
v  -7.8992 5.4081 -72.8098
v  12.9329 5.4081 -72.8098
v  32.5087 9.5233 -65.6848
v  48.4670 15.4451 -52.2942
v  58.8830 20.7648 -34.2530
v  62.5005 23.0733 -13.7374
v  58.8830 20.7648 6.7782
v  28.3112 10.0888 -23.1258
v  29.9666 10.0888 -13.7374
v  23.5446 10.0888 -31.3818
v  16.2417 10.0888 -37.5096
v  7.2835 10.0888 -40.7702
v  -2.2498 10.0888 -40.7702
v  -11.2080 10.0888 -37.5096
v  -18.5109 10.0888 -31.3818
v  -23.2775 10.0888 -23.1258
v  -24.9329 10.0888 -13.7374
v  -23.2775 10.0888 -4.3491
v  -18.5109 10.0888 3.9069
v  -11.2080 10.0888 10.0348
v  -2.2498 10.0888 13.2953
v  7.2834 10.0888 13.2953
v  16.2417 10.0888 10.0348
v  23.5446 10.0888 3.9070
v  28.3112 10.0888 -4.3490
v  22.7838 22.6958 -21.1140
v  24.0845 22.6958 -13.7374
v  19.0387 22.6958 -27.6009
v  13.3007 22.6958 -32.4156
v  6.2620 22.6958 -34.9775
v  -1.2283 22.6958 -34.9775
v  -8.2670 22.6958 -32.4156
v  -14.0050 22.6958 -27.6009
v  -17.7501 22.6958 -21.1140
v  -19.0508 22.6958 -13.7374
v  -17.7501 22.6958 -6.3609
v  -14.0050 22.6958 0.1260
v  -8.2670 22.6958 4.9407
v  -1.2283 22.6958 7.5026
v  6.2620 22.6958 7.5026
v  13.3007 22.6958 4.9407
v  19.0386 22.6958 0.1260
v  22.7838 22.6958 -6.3608
v  20.9414 35.3028 -20.4434
v  22.1238 35.3028 -13.7374
v  17.5367 35.3028 -26.3406
v  12.3203 35.3028 -30.7176
v  5.9216 35.3028 -33.0465
v  -0.8879 35.3028 -33.0465
v  -7.2866 35.3028 -30.7176
v  -12.5030 35.3028 -26.3406
v  -15.9077 35.3028 -20.4434
v  -17.0901 35.3028 -13.7374
v  -15.9077 35.3028 -7.0315
v  -12.5030 35.3028 -1.1343
v  -7.2867 35.3028 3.2427
v  -0.8879 35.3028 5.5717
v  5.9216 35.3028 5.5717
v  12.3203 35.3028 3.2427
v  17.5367 35.3028 -1.1343
v  20.9414 35.3028 -7.0314
v  22.7838 47.9098 -21.1140
v  24.0845 47.9098 -13.7374
v  19.0387 47.9098 -27.6009
v  13.3007 47.9098 -32.4156
v  6.2620 47.9098 -34.9775
v  -1.2283 47.9098 -34.9774
v  -8.2670 47.9098 -32.4156
v  -14.0050 47.9098 -27.6009
v  -17.7501 47.9098 -21.1140
v  -19.0508 47.9098 -13.7374
v  -17.7501 47.9098 -6.3609
v  -14.0050 47.9098 0.1260
v  -8.2670 47.9098 4.9407
v  -1.2283 47.9098 7.5026
v  6.2620 47.9098 7.5026
v  13.3007 47.9098 4.9407
v  19.0386 47.9098 0.1260
v  22.7838 47.9098 -6.3608
v  28.3112 68.9894 -23.1258
v  29.9666 70.2130 -13.7374
v  23.5446 66.1696 -31.3818
v  16.2417 63.0306 -37.5096
v  7.2835 60.8493 -40.7702
v  -2.2498 60.8493 -40.7702
v  -11.2080 63.0306 -37.5096
v  -18.5109 66.1696 -31.3818
v  -23.2775 68.9894 -23.1258
v  -24.9329 70.2130 -13.7374
v  -23.2775 68.9894 -4.3491
v  -18.5109 66.1696 3.9069
v  -11.2080 63.0306 10.0348
v  -2.2498 60.8493 13.2953
v  7.2834 60.8493 13.2953
v  16.2417 63.0306 10.0348
v  23.5446 66.1696 3.9070
v  28.3112 68.9893 -4.3490
# 108 vertices

vn 0.2134 -0.9691 -0.1241
vn 0.0821 -0.9440 -0.3196
vn 0.0069 -0.9834 -0.1811
vn 0.0000 -0.8659 -0.5001
vn -0.0517 -0.9495 -0.3096
vn -0.2306 -0.9614 -0.1503
vn -0.1534 -0.9863 -0.0614
vn -0.5380 -0.8430 -0.0000
vn -0.3941 -0.9190 0.0092
vn -0.2306 -0.9614 0.1503
vn -0.0374 -0.9762 0.2137
vn 0.0000 -0.8659 0.5001
vn -0.0039 -0.8933 0.4494
vn 0.0821 -0.9440 0.3196
vn 0.1101 -0.9889 0.1003
vn 0.4137 -0.9099 0.0294
vn 0.3652 -0.9308 0.0178
vn 0.4137 -0.9099 -0.0294
vn -0.3599 0.9330 0.0072
vn -0.3196 0.9462 -0.0514
vn 0.2965 0.9469 -0.1243
vn 0.3098 0.9507 0.0154
vn -0.2529 0.9619 -0.1042
vn 0.2725 0.9218 -0.2756
vn -0.1728 0.9741 -0.1459
vn 0.2019 0.8804 -0.4291
vn -0.0715 0.9851 -0.1565
vn 0.0681 0.8406 -0.5374
vn 0.0614 0.9893 -0.1322
vn -0.0972 0.8286 -0.5514
vn 0.1954 0.9761 -0.0949
vn -0.2370 0.8536 -0.4639
vn 0.2985 0.9521 -0.0658
vn -0.3118 0.8967 -0.3143
vn 0.3564 0.9332 -0.0462
vn -0.3241 0.9329 -0.1568
vn 0.3599 0.9330 -0.0072
vn -0.3098 0.9507 -0.0154
vn 0.3196 0.9462 0.0514
vn -0.2965 0.9469 0.1243
vn 0.2529 0.9619 0.1042
vn -0.2725 0.9218 0.2756
vn 0.1728 0.9741 0.1459
vn -0.2019 0.8804 0.4291
vn 0.0715 0.9851 0.1565
vn -0.0681 0.8406 0.5374
vn -0.0614 0.9893 0.1322
vn 0.0972 0.8286 0.5514
vn -0.1954 0.9761 0.0949
vn 0.2370 0.8536 0.4639
vn -0.2985 0.9521 0.0658
vn 0.3118 0.8967 0.3143
vn -0.3564 0.9332 0.0462
vn 0.3241 0.9329 0.1568
vn 0.8977 0.2956 -0.3267
vn 0.9553 0.2956 0.0000
vn 0.7318 0.2956 -0.6141
vn 0.4777 0.2956 -0.8273
vn 0.1659 0.2956 -0.9408
vn -0.1659 0.2956 -0.9408
vn -0.4777 0.2956 -0.8273
vn -0.7318 0.2956 -0.6141
vn -0.8977 0.2956 -0.3267
vn -0.9553 0.2956 -0.0000
vn -0.8977 0.2956 0.3267
vn -0.7318 0.2956 0.6141
vn -0.4777 0.2956 0.8273
vn -0.1659 0.2956 0.9408
vn 0.1659 0.2956 0.9408
vn 0.4777 0.2956 0.8273
vn 0.7318 0.2956 0.6141
vn 0.8977 0.2956 0.3267
vn 0.9397 0.0000 -0.3420
vn 1.0000 0.0000 0.0000
vn 0.7660 0.0000 -0.6428
vn 0.5000 0.0000 -0.8660
vn 0.1736 0.0000 -0.9848
vn -0.1736 0.0000 -0.9848
vn -0.5000 -0.0000 -0.8660
vn -0.7660 0.0000 -0.6428
vn -0.9397 0.0000 -0.3420
vn -1.0000 0.0000 -0.0000
vn -0.9397 0.0000 0.3420
vn -0.7660 0.0000 0.6428
vn -0.5000 0.0000 0.8660
vn -0.1736 0.0000 0.9848
vn 0.1736 -0.0000 0.9848
vn 0.5000 0.0000 0.8660
vn 0.7660 0.0000 0.6428
vn 0.9397 0.0000 0.3420
vn 0.9188 -0.2200 -0.3278
vn 0.9780 -0.2084 0.0023
vn 0.7490 -0.2428 -0.6165
vn 0.4886 -0.2715 -0.8292
vn 0.1662 -0.2906 -0.9423
vn -0.1753 -0.2813 -0.9435
vn -0.4920 -0.2521 -0.8333
vn -0.7504 -0.2255 -0.6214
vn -0.9195 -0.2102 -0.3322
vn -0.9780 -0.2084 -0.0023
vn -0.9188 -0.2200 0.3278
vn -0.7490 -0.2428 0.6165
vn -0.4886 -0.2715 0.8292
vn -0.1662 -0.2906 0.9423
vn 0.1753 -0.2813 0.9435
vn 0.4920 -0.2521 0.8333
vn 0.7504 -0.2255 0.6214
vn 0.9195 -0.2102 0.3322
vn 0.9288 -0.2631 -0.2608
vn 0.9658 -0.2592 0.0029
vn 0.7995 -0.2906 -0.5257
vn 0.5603 -0.3407 -0.7550
vn 0.2021 -0.3978 -0.8950
vn -0.2162 -0.4131 -0.8846
vn -0.5647 -0.3712 -0.7371
vn -0.7966 -0.3167 -0.5148
vn -0.9247 -0.2774 -0.2608
vn -0.9658 -0.2592 -0.0029
vn -0.9288 -0.2631 0.2608
vn -0.7995 -0.2906 0.5257
vn -0.5603 -0.3407 0.7550
vn -0.2021 -0.3978 0.8950
vn 0.2162 -0.4131 0.8846
vn 0.5647 -0.3712 0.7371
vn 0.7966 -0.3167 0.5148
vn 0.9247 -0.2774 0.2608
vn -0.5236 0.8520 0.0000
vn -0.4657 0.8843 -0.0331
vn -0.2049 0.9772 -0.0558
vn -0.0934 0.9269 -0.3635
vn 0.0042 0.8640 -0.5034
vn -0.0000 0.8312 -0.5560
vn 0.1129 0.9873 -0.1116
vn 0.2637 0.9492 -0.1719
vn 0.4450 0.8954 -0.0104
vn 0.5944 0.8042 0.0000
vn 0.3102 0.9506 0.0137
vn 0.2637 0.9492 0.1719
vn 0.0588 0.9338 0.3530
vn -0.0000 0.8312 0.5560
vn -0.0296 0.9929 0.1150
vn -0.0934 0.9269 0.3635
vn -0.3430 0.9390 0.0245
vn -0.4657 0.8843 0.0331
# 144 vertex normals

vt 0.1953 0.0000 -0.3473
vt 0.0874 0.0000 -0.6527
vt 0.0292 0.0000 -0.8794
vt 0.0278 0.0000 -1.0000
vt 0.0833 0.0000 -1.0000
vt 0.1891 0.0000 -0.8794
vt 0.3325 0.0000 -0.6527
vt 0.4960 0.0000 -0.3473
vt 0.6600 0.0000 -0.0000
vt 0.8047 0.0000 0.3473
vt 0.9126 0.0000 0.6527
vt 0.9708 0.0000 0.8794
vt 0.9722 0.0000 1.0000
vt 0.9167 0.0000 1.0000
vt 0.8611 0.0000 1.0000
vt 0.8056 0.0000 1.0000
vt 0.7500 0.0000 1.0000
vt 0.3400 0.0000 0.0000
vt 0.8056 0.2000 1.0000
vt 0.7500 0.2000 1.0000
vt 0.8611 0.2000 1.0000
vt 0.9167 0.2000 1.0000
vt 0.9722 0.2000 1.0000
vt -0.0278 0.0000 1.0000
vt 0.0278 0.0000 1.0000
vt 0.0278 0.2000 1.0000
vt -0.0278 0.2000 1.0000
vt 0.0833 0.0000 1.0000
vt 0.0833 0.2000 1.0000
vt 0.1389 0.0000 1.0000
vt 0.1389 0.2000 1.0000
vt 0.1944 0.0000 1.0000
vt 0.1944 0.2000 1.0000
vt 0.2500 0.0000 1.0000
vt 0.2500 0.2000 1.0000
vt 0.3056 0.0000 1.0000
vt 0.3056 0.2000 1.0000
vt 0.3611 0.0000 1.0000
vt 0.3611 0.2000 1.0000
vt 0.4167 0.0000 1.0000
vt 0.4167 0.2000 1.0000
vt 0.4722 0.0000 1.0000
vt 0.4722 0.2000 1.0000
vt 0.5278 0.0000 1.0000
vt 0.5278 0.2000 1.0000
vt 0.5833 0.0000 1.0000
vt 0.5833 0.2000 1.0000
vt 0.6389 0.0000 1.0000
vt 0.6389 0.2000 1.0000
vt 0.6944 0.0000 1.0000
vt 0.6944 0.2000 1.0000
vt 0.8056 0.4000 1.0000
vt 0.7500 0.4000 1.0000
vt 0.8611 0.4000 1.0000
vt 0.9167 0.4000 1.0000
vt 0.9722 0.4000 1.0000
vt 0.0278 0.4000 1.0000
vt -0.0278 0.4000 1.0000
vt 0.0833 0.4000 1.0000
vt 0.1389 0.4000 1.0000
vt 0.1944 0.4000 1.0000
vt 0.2500 0.4000 1.0000
vt 0.3056 0.4000 1.0000
vt 0.3611 0.4000 1.0000
vt 0.4167 0.4000 1.0000
vt 0.4722 0.4000 1.0000
vt 0.5278 0.4000 1.0000
vt 0.5833 0.4000 1.0000
vt 0.6389 0.4000 1.0000
vt 0.6944 0.4000 1.0000
vt 0.8056 0.6000 1.0000
vt 0.7500 0.6000 1.0000
vt 0.8611 0.6000 1.0000
vt 0.9167 0.6000 1.0000
vt 0.9722 0.6000 1.0000
vt 0.0278 0.6000 1.0000
vt -0.0278 0.6000 1.0000
vt 0.0833 0.6000 1.0000
vt 0.1389 0.6000 1.0000
vt 0.1944 0.6000 1.0000
vt 0.2500 0.6000 1.0000
vt 0.3056 0.6000 1.0000
vt 0.3611 0.6000 1.0000
vt 0.4167 0.6000 1.0000
vt 0.4722 0.6000 1.0000
vt 0.5278 0.6000 1.0000
vt 0.5833 0.6000 1.0000
vt 0.6389 0.6000 1.0000
vt 0.6944 0.6000 1.0000
vt 0.8056 0.8000 1.0000
vt 0.7500 0.8000 1.0000
vt 0.8611 0.8000 1.0000
vt 0.9167 0.8000 1.0000
vt 0.9722 0.8000 1.0000
vt 0.0278 0.8000 1.0000
vt -0.0278 0.8000 1.0000
vt 0.0833 0.8000 1.0000
vt 0.1389 0.8000 1.0000
vt 0.1944 0.8000 1.0000
vt 0.2500 0.8000 1.0000
vt 0.3056 0.8000 1.0000
vt 0.3611 0.8000 1.0000
vt 0.4167 0.8000 1.0000
vt 0.4722 0.8000 1.0000
vt 0.5278 0.8000 1.0000
vt 0.5833 0.8000 1.0000
vt 0.6389 0.8000 1.0000
vt 0.6944 0.8000 1.0000
vt 0.8056 1.0000 1.0000
vt 0.7500 1.0000 1.0000
vt 0.8611 1.0000 1.0000
vt 0.9167 1.0000 1.0000
vt 0.9722 1.0000 1.0000
vt 0.0278 1.0000 1.0000
vt -0.0278 1.0000 1.0000
vt 0.0833 1.0000 1.0000
vt 0.1389 1.0000 1.0000
vt 0.1944 1.0000 1.0000
vt 0.2500 1.0000 1.0000
vt 0.3056 1.0000 1.0000
vt 0.3611 1.0000 1.0000
vt 0.4167 1.0000 1.0000
vt 0.4722 1.0000 1.0000
vt 0.5278 1.0000 1.0000
vt 0.5833 1.0000 1.0000
vt 0.6389 1.0000 1.0000
vt 0.6944 1.0000 1.0000
vt 0.9708 1.0000 0.8794
vt 0.9126 1.0000 0.6527
vt 0.8047 1.0000 0.3473
vt 0.6600 1.0000 0.0000
vt 0.4960 1.0000 -0.3473
vt 0.3325 1.0000 -0.6527
vt 0.1891 1.0000 -0.8794
vt 0.0833 1.0000 -1.0000
vt 0.0278 1.0000 -1.0000
vt 0.0292 1.0000 -0.8794
vt 0.0874 1.0000 -0.6527
vt 0.1953 1.0000 -0.3473
# 139 texture coords

o Cylinder001
g Cylinder001
s 1
f 1/1/1 2/2/2 3/3/3 
f 3/3/3 4/4/4 5/5/5 
f 5/5/5 6/6/6 7/7/7 
f 3/3/3 5/5/5 7/7/7 
f 7/7/7 8/8/8 9/9/9 
f 9/9/9 10/10/10 11/11/11 
f 7/7/7 9/9/9 11/11/11 
f 11/11/11 12/12/12 13/13/13 
f 13/13/13 14/14/14 15/15/15 
f 11/11/11 13/13/13 15/15/15 
f 7/7/7 11/11/11 15/15/15 
f 3/3/3 7/7/7 15/15/15 
f 15/15/15 16/16/16 17/17/17 
f 3/3/3 15/15/15 17/17/17 
f 1/1/1 3/3/3 17/17/17 
f 18/18/18 1/1/1 17/17/17 
s 8
f 17/17/19 16/16/20 19/19/21 
f 19/19/21 20/20/22 17/17/19 
f 16/16/20 15/15/23 21/21/24 
f 21/21/24 19/19/21 16/16/20 
f 15/15/23 14/14/25 22/22/26 
f 22/22/26 21/21/24 15/15/23 
f 14/14/25 13/13/27 23/23/28 
f 23/23/28 22/22/26 14/14/25 
f 13/24/27 12/25/29 24/26/30 
f 24/26/30 23/27/28 13/24/27 
f 12/25/29 11/28/31 25/29/32 
f 25/29/32 24/26/30 12/25/29 
f 11/28/31 10/30/33 26/31/34 
f 26/31/34 25/29/32 11/28/31 
f 10/30/33 9/32/35 27/33/36 
f 27/33/36 26/31/34 10/30/33 
f 9/32/35 8/34/37 28/35/38 
f 28/35/38 27/33/36 9/32/35 
f 8/34/37 7/36/39 29/37/40 
f 29/37/40 28/35/38 8/34/37 
f 7/36/39 6/38/41 30/39/42 
f 30/39/42 29/37/40 7/36/39 
f 6/38/41 5/40/43 31/41/44 
f 31/41/44 30/39/42 6/38/41 
f 5/40/43 4/42/45 32/43/46 
f 32/43/46 31/41/44 5/40/43 
f 4/42/45 3/44/47 33/45/48 
f 33/45/48 32/43/46 4/42/45 
f 3/44/47 2/46/49 34/47/50 
f 34/47/50 33/45/48 3/44/47 
f 2/46/49 1/48/51 35/49/52 
f 35/49/52 34/47/50 2/46/49 
f 1/48/51 18/50/53 36/51/54 
f 36/51/54 35/49/52 1/48/51 
f 18/50/53 17/17/19 20/20/22 
f 20/20/22 36/51/54 18/50/53 
f 20/20/22 19/19/21 37/52/55 
f 37/52/55 38/53/56 20/20/22 
f 19/19/21 21/21/24 39/54/57 
f 39/54/57 37/52/55 19/19/21 
f 21/21/24 22/22/26 40/55/58 
f 40/55/58 39/54/57 21/21/24 
f 22/22/26 23/23/28 41/56/59 
f 41/56/59 40/55/58 22/22/26 
f 23/27/28 24/26/30 42/57/60 
f 42/57/60 41/58/59 23/27/28 
f 24/26/30 25/29/32 43/59/61 
f 43/59/61 42/57/60 24/26/30 
f 25/29/32 26/31/34 44/60/62 
f 44/60/62 43/59/61 25/29/32 
f 26/31/34 27/33/36 45/61/63 
f 45/61/63 44/60/62 26/31/34 
f 27/33/36 28/35/38 46/62/64 
f 46/62/64 45/61/63 27/33/36 
f 28/35/38 29/37/40 47/63/65 
f 47/63/65 46/62/64 28/35/38 
f 29/37/40 30/39/42 48/64/66 
f 48/64/66 47/63/65 29/37/40 
f 30/39/42 31/41/44 49/65/67 
f 49/65/67 48/64/66 30/39/42 
f 31/41/44 32/43/46 50/66/68 
f 50/66/68 49/65/67 31/41/44 
f 32/43/46 33/45/48 51/67/69 
f 51/67/69 50/66/68 32/43/46 
f 33/45/48 34/47/50 52/68/70 
f 52/68/70 51/67/69 33/45/48 
f 34/47/50 35/49/52 53/69/71 
f 53/69/71 52/68/70 34/47/50 
f 35/49/52 36/51/54 54/70/72 
f 54/70/72 53/69/71 35/49/52 
f 36/51/54 20/20/22 38/53/56 
f 38/53/56 54/70/72 36/51/54 
f 38/53/56 37/52/55 55/71/73 
f 55/71/73 56/72/74 38/53/56 
f 37/52/55 39/54/57 57/73/75 
f 57/73/75 55/71/73 37/52/55 
f 39/54/57 40/55/58 58/74/76 
f 58/74/76 57/73/75 39/54/57 
f 40/55/58 41/56/59 59/75/77 
f 59/75/77 58/74/76 40/55/58 
f 41/58/59 42/57/60 60/76/78 
f 60/76/78 59/77/77 41/58/59 
f 42/57/60 43/59/61 61/78/79 
f 61/78/79 60/76/78 42/57/60 
f 43/59/61 44/60/62 62/79/80 
f 62/79/80 61/78/79 43/59/61 
f 44/60/62 45/61/63 63/80/81 
f 63/80/81 62/79/80 44/60/62 
f 45/61/63 46/62/64 64/81/82 
f 64/81/82 63/80/81 45/61/63 
f 46/62/64 47/63/65 65/82/83 
f 65/82/83 64/81/82 46/62/64 
f 47/63/65 48/64/66 66/83/84 
f 66/83/84 65/82/83 47/63/65 
f 48/64/66 49/65/67 67/84/85 
f 67/84/85 66/83/84 48/64/66 
f 49/65/67 50/66/68 68/85/86 
f 68/85/86 67/84/85 49/65/67 
f 50/66/68 51/67/69 69/86/87 
f 69/86/87 68/85/86 50/66/68 
f 51/67/69 52/68/70 70/87/88 
f 70/87/88 69/86/87 51/67/69 
f 52/68/70 53/69/71 71/88/89 
f 71/88/89 70/87/88 52/68/70 
f 53/69/71 54/70/72 72/89/90 
f 72/89/90 71/88/89 53/69/71 
f 54/70/72 38/53/56 56/72/74 
f 56/72/74 72/89/90 54/70/72 
f 56/72/74 55/71/73 73/90/91 
f 73/90/91 74/91/92 56/72/74 
f 55/71/73 57/73/75 75/92/93 
f 75/92/93 73/90/91 55/71/73 
f 57/73/75 58/74/76 76/93/94 
f 76/93/94 75/92/93 57/73/75 
f 58/74/76 59/75/77 77/94/95 
f 77/94/95 76/93/94 58/74/76 
f 59/77/77 60/76/78 78/95/96 
f 78/95/96 77/96/95 59/77/77 
f 60/76/78 61/78/79 79/97/97 
f 79/97/97 78/95/96 60/76/78 
f 61/78/79 62/79/80 80/98/98 
f 80/98/98 79/97/97 61/78/79 
f 62/79/80 63/80/81 81/99/99 
f 81/99/99 80/98/98 62/79/80 
f 63/80/81 64/81/82 82/100/100 
f 82/100/100 81/99/99 63/80/81 
f 64/81/82 65/82/83 83/101/101 
f 83/101/101 82/100/100 64/81/82 
f 65/82/83 66/83/84 84/102/102 
f 84/102/102 83/101/101 65/82/83 
f 66/83/84 67/84/85 85/103/103 
f 85/103/103 84/102/102 66/83/84 
f 67/84/85 68/85/86 86/104/104 
f 86/104/104 85/103/103 67/84/85 
f 68/85/86 69/86/87 87/105/105 
f 87/105/105 86/104/104 68/85/86 
f 69/86/87 70/87/88 88/106/106 
f 88/106/106 87/105/105 69/86/87 
f 70/87/88 71/88/89 89/107/107 
f 89/107/107 88/106/106 70/87/88 
f 71/88/89 72/89/90 90/108/108 
f 90/108/108 89/107/107 71/88/89 
f 72/89/90 56/72/74 74/91/92 
f 74/91/92 90/108/108 72/89/90 
f 74/91/92 73/90/91 91/109/109 
f 91/109/109 92/110/110 74/91/92 
f 73/90/91 75/92/93 93/111/111 
f 93/111/111 91/109/109 73/90/91 
f 75/92/93 76/93/94 94/112/112 
f 94/112/112 93/111/111 75/92/93 
f 76/93/94 77/94/95 95/113/113 
f 95/113/113 94/112/112 76/93/94 
f 77/96/95 78/95/96 96/114/114 
f 96/114/114 95/115/113 77/96/95 
f 78/95/96 79/97/97 97/116/115 
f 97/116/115 96/114/114 78/95/96 
f 79/97/97 80/98/98 98/117/116 
f 98/117/116 97/116/115 79/97/97 
f 80/98/98 81/99/99 99/118/117 
f 99/118/117 98/117/116 80/98/98 
f 81/99/99 82/100/100 100/119/118 
f 100/119/118 99/118/117 81/99/99 
f 82/100/100 83/101/101 101/120/119 
f 101/120/119 100/119/118 82/100/100 
f 83/101/101 84/102/102 102/121/120 
f 102/121/120 101/120/119 83/101/101 
f 84/102/102 85/103/103 103/122/121 
f 103/122/121 102/121/120 84/102/102 
f 85/103/103 86/104/104 104/123/122 
f 104/123/122 103/122/121 85/103/103 
f 86/104/104 87/105/105 105/124/123 
f 105/124/123 104/123/122 86/104/104 
f 87/105/105 88/106/106 106/125/124 
f 106/125/124 105/124/123 87/105/105 
f 88/106/106 89/107/107 107/126/125 
f 107/126/125 106/125/124 88/106/106 
f 89/107/107 90/108/108 108/127/126 
f 108/127/126 107/126/125 89/107/107 
f 90/108/108 74/91/92 92/110/110 
f 92/110/110 108/127/126 90/108/108 
s 1
f 92/110/127 91/109/128 93/111/129 
f 93/111/129 94/112/130 95/113/131 
f 95/113/131 96/128/132 97/129/133 
f 93/111/129 95/113/131 97/129/133 
f 97/129/133 98/130/134 99/131/135 
f 99/131/135 100/132/136 101/133/137 
f 97/129/133 99/131/135 101/133/137 
f 101/133/137 102/134/138 103/135/139 
f 103/135/139 104/136/140 105/137/141 
f 101/133/137 103/135/139 105/137/141 
f 97/129/133 101/133/137 105/137/141 
f 93/111/129 97/129/133 105/137/141 
f 105/137/141 106/138/142 107/139/143 
f 93/111/129 105/137/141 107/139/143 
f 92/110/127 93/111/129 107/139/143 
f 108/127/144 92/110/127 107/139/143 
# 212 faces

